<?xml version="1.0" standalone="no"?>
<!DOCTYPE svg PUBLIC "-//W3C//DTD SVG 20010904//EN"
 "http://www.w3.org/TR/2001/REC-SVG-20010904/DTD/svg10.dtd">
<svg version="1.0" xmlns="http://www.w3.org/2000/svg"
 width="128.000000pt" height="128.000000pt" viewBox="0 0 128.000000 128.000000"
 preserveAspectRatio="xMidYMid meet">

<g transform="translate(0.000000,128.000000) scale(0.100000,-0.100000)"
fill="#000000" stroke="none">
<path d="M687 1248 c-8 -13 -31 -74 -52 -136 -27 -84 -34 -117 -26 -125 19
-19 36 10 71 118 18 55 34 103 36 107 2 3 118 -32 258 -78 l254 -85 -19 -60
c-10 -33 -68 -210 -129 -393 l-110 -334 -35 11 c-43 13 -69 -3 -45 -27 24 -23
86 -36 104 -23 8 7 76 198 151 425 108 326 134 416 125 427 -7 8 -132 53 -278
101 -147 48 -272 89 -279 91 -6 3 -18 -6 -26 -19z"/>
<path d="M748 1116 c-8 -20 -8 -30 0 -38 19 -19 44 -1 40 29 -4 36 -25 40 -40
9z"/>
<path d="M297 1068 c-2 -7 0 -25 4 -41 7 -24 4 -29 -24 -43 -60 -31 -119 -79
-158 -128 l-39 -49 0 -98 0 -99 69 0 c75 0 121 23 121 61 0 15 7 19 33 19 64
0 101 -76 58 -119 -11 -11 -42 -26 -69 -35 -120 -35 -159 -78 -175 -191 -8
-51 -15 -75 -24 -75 -23 0 -63 -48 -63 -75 0 -14 -7 -40 -16 -56 -22 -43 -10
-86 29 -110 28 -17 52 -19 203 -19 171 0 199 5 187 36 -4 11 -41 14 -182 14
-183 0 -201 4 -201 42 0 16 15 18 178 20 169 3 177 4 177 23 0 19 -8 20 -167
23 -128 2 -168 6 -168 15 0 32 24 37 185 37 162 0 190 6 178 36 -4 11 -35 14
-139 14 l-134 0 0 44 c0 92 41 145 137 177 110 36 147 86 120 166 -14 43 -66
83 -108 83 -40 0 -79 -20 -79 -41 0 -30 -29 -50 -69 -47 -25 2 -37 8 -39 21
-2 10 3 17 12 17 26 0 30 22 8 41 -12 9 -22 26 -22 38 0 34 105 137 176 172
44 22 64 37 64 50 0 11 3 19 6 19 3 0 43 -18 89 -39 139 -65 165 -124 165
-380 0 -91 4 -172 9 -180 5 -8 16 -11 25 -8 14 5 16 28 16 160 0 172 -11 250
-45 317 -34 66 -68 93 -189 149 -114 54 -132 59 -139 39z"/>
<path d="M743 874 c-22 -23 -25 -32 -21 -82 4 -60 58 -192 78 -192 6 0 30 10
53 21 142 72 190 156 127 219 -13 13 -33 20 -56 20 -21 0 -47 8 -61 20 -37 29
-88 26 -120 -6z m97 -49 c19 -34 24 -35 62 -16 49 25 76 -19 42 -68 -19 -26
-101 -81 -121 -81 -15 0 -46 64 -58 118 -5 23 -2 40 10 58 20 32 44 28 65 -11z"/>
<path d="M350 840 c0 -16 5 -21 23 -18 12 2 22 10 22 18 0 8 -10 16 -22 18
-18 3 -23 -2 -23 -18z"/>
<path d="M901 388 c-10 -26 4 -49 24 -42 14 6 27 43 19 56 -10 16 -35 8 -43
-14z"/>
<path d="M512 338 c-8 -8 -12 -57 -12 -154 0 -180 -6 -174 165 -174 171 0 165
-6 165 174 0 97 -4 146 -12 154 -17 17 -289 17 -306 0z m276 -155 l3 -123
-126 0 -125 0 0 118 c0 65 3 122 7 126 4 3 59 5 122 4 l116 -3 3 -122z"/>
<path d="M595 240 c-4 -7 -3 -16 3 -22 14 -14 47 -6 47 12 0 18 -40 26 -50 10z"/>
<path d="M685 240 c-9 -15 4 -30 26 -30 12 0 19 7 19 20 0 21 -33 29 -45 10z"/>
<path d="M597 146 c-9 -22 19 -42 37 -26 19 15 10 40 -14 40 -10 0 -20 -6 -23
-14z"/>
<path d="M684 149 c-8 -14 21 -43 35 -35 6 4 11 16 11 27 0 21 -34 27 -46 8z"/>
</g>
</svg>
